<svg width="19" height="20" viewBox="0 0 19 20" fill="none" xmlns="http://www.w3.org/2000/svg">
<path fill-rule="evenodd" clip-rule="evenodd" d="M19 14.629V15.0007C19 15.8211 18.3457 16.4815 17.538 16.4815H12.7885C12.7885 18.3224 11.3162 19.8148 9.5 19.8148C7.68383 19.8148 6.21154 18.3224 6.21154 16.4815H1.46205C0.65452 16.4815 0 15.8189 0 15.0007V14.629C0 13.3242 0.95294 12.2447 2.19231 12.0637V7.59231C2.19231 3.5004 5.46357 0.185181 9.5 0.185181C13.5365 0.185181 16.8077 3.50119 16.8077 7.59231V12.0636C18.0488 12.2442 19 13.3229 19 14.629ZM9.5 18.3333C8.49102 18.3333 7.67308 17.5042 7.67308 16.4815H11.3269C11.3269 17.5042 10.509 18.3333 9.5 18.3333ZM16.4389 13.5185C17.0484 13.5185 17.5385 14.0148 17.5385 14.629C17.5385 14.629 17.5382 15 17.538 15L1.46154 15.0001V14.629C1.46154 14.0163 1.95364 13.5185 2.56106 13.5185C3.16231 13.5185 3.65385 13.0218 3.65385 12.4101V7.59231C3.65385 4.31867 6.27069 1.66666 9.5 1.66666C12.7293 1.66666 15.3462 4.31938 15.3462 7.59231V12.4101C15.3462 13.0191 15.8352 13.5185 16.4389 13.5185Z" fill="#444444"/>
</svg>
